<svg width="159" height="80" viewBox="0 0 159 80" fill="none" xmlns="http://www.w3.org/2000/svg">
<path d="M153.762 53.6592V36.7561C153.762 28.4199 145.764 25.9804 140.774 26.0554C137.361 26.1044 133.579 27.3876 130.784 29.6194L134.292 34.6511L135.803 33.6851C135.868 31.9867 136.566 31.0784 137.108 30.6805C141.772 27.2722 145.604 31.338 145.604 31.338C145.604 31.338 147.211 33.0017 147.211 35.3806C147.211 35.47 147.205 38.6534 147.205 38.6534C147.205 38.6534 144.107 37.128 139.746 37.3645C137.871 37.4683 133.879 38.2814 130.766 40.7843C128.399 42.6874 127.441 45.1817 127.441 48.4372C127.441 49.8703 127.747 51.2342 128.297 52.4683C129.002 54.0398 130.103 55.4008 131.477 56.4216C133.07 57.6009 135.023 58.3276 137.149 58.4025C137.271 58.4083 137.39 58.4083 137.513 58.4083C137.635 58.4083 137.754 58.4083 137.877 58.4025H157.003V57.2491C155.777 57.2117 153.765 55.6286 153.765 53.6649M140.121 54.2561C137.405 54.2561 134.342 51.5542 134.342 48.2699C134.342 44.9856 136.662 41.9752 140.622 41.9752C145.016 41.9752 147.191 44.2878 147.191 45.9285C147.191 45.9285 147.197 49.3801 147.197 49.9914C147.197 52.1165 145.214 54.2561 140.121 54.2561Z" fill="#DA5F8E"/>
<path d="M123.078 53.2445V2.54382L111.562 5.98096V7.3564C113.344 7.85236 114.445 9.35178 114.445 11.0588V11.0646L114.678 47.4227C114.698 47.3968 114.722 47.3679 114.742 47.3391L114.768 53.3368C114.768 54.7555 113.644 56.278 112.197 56.7422L112.209 58.3743L125.899 58.4175L125.89 56.7336C124.272 56.2866 123.081 54.7641 123.081 53.2416" fill="#DA5F8E"/>
<path d="M109.251 27.5603L109.245 25.957H99.8054V49.6104C99.8054 50.513 99.063 53.3648 95.211 53.3648C91.0853 53.3648 88.9889 49.8469 88.9889 47.4074L89.0908 31.1473C89.0908 29.4172 90.4069 27.912 91.8452 27.5458L91.8394 25.9657H82.3359V48.4109C82.3359 53.8319 86.7062 58.2408 92.1422 58.3792H92.1742C92.2499 58.3792 92.3256 58.3792 92.4013 58.3792C92.4566 58.3792 92.5119 58.3792 92.5702 58.3792H92.6633L109.216 58.4022L109.207 56.7385C107.361 56.2454 106.406 54.4864 106.406 53.3763C106.406 51.9951 106.563 31.1964 106.563 31.1964C106.563 29.4086 107.763 28.0533 109.251 27.566" fill="#DA5F8E"/>
<path d="M52.698 22.215V35.208L59.68 26.3672V13.9912L50.1241 16.8516L50.13 18.4462C51.5974 19.0662 52.6951 20.2282 52.6951 22.215" fill="#DA5F8E"/>
<path d="M59.6955 53.314V48.3948L59.7333 48.3688V37.8008L52.7309 46.8089C52.7309 46.8089 52.7309 46.8233 52.7309 46.8406L52.6931 46.8867C52.6931 46.8867 52.6349 53.2247 52.6349 53.314C52.6349 54.701 51.5663 56.1831 50.1367 56.6906L50.1425 58.314H62.2635L62.2547 56.7252C60.7611 56.2033 59.6925 54.8337 59.6925 53.3083" fill="#DA5F8E"/>
<path d="M77.2864 53.069V51.9473V51.6013V36.1169C77.2864 30.4652 72.8899 25.9727 67.221 25.9727C64.9354 25.9727 61.7472 26.9272 59.6829 29.3349C59.6829 29.3349 55.3359 34.7674 52.7009 38.3862C48.7878 43.7582 42.1377 52.9191 28.3543 52.9191C23.5065 52.9191 16.8448 51.7426 12.6201 44.9837C8.94564 39.1071 8.95147 32.0108 9.26883 29.3839C10.3752 20.2634 15.9102 11.6965 26.2754 11.6965C34.8704 11.6965 39.3251 18.1728 39.3659 18.2305C40.187 19.43 40.4723 20.5402 40.4897 21.8493L41.6952 22.7951L41.864 22.9249L49.2332 15.7882C40.941 5.45658 29.5742 5.70167 28.3252 5.70167C14.6261 5.70167 3.34958 15.9641 1.92582 29.3435C1.82682 30.272 1.77441 31.2149 1.77441 32.1723C1.77441 46.6936 13.6624 58.294 28.3252 58.294C38.0353 58.294 45.5326 54.0321 52.7009 43.7236C53.0299 43.2478 58.4601 36.287 58.4601 36.287C58.4601 36.287 61.9394 31.8378 62.0326 31.7484C62.7255 31.0621 63.8261 30.5402 65.2353 30.719C68.4905 31.1255 70.549 33.9456 70.549 36.9416V53.144C70.549 54.802 69.4775 56.2149 67.978 56.7369L67.9838 58.3257H80.1048L80.0931 56.7426C78.4743 56.2957 77.2864 54.8222 77.2864 53.0748" fill="#DA5F8E"/>
<path d="M136.467 58.4482C136.59 58.4482 136.709 58.4481 136.831 58.4424H136.106C136.226 58.4453 136.348 58.4482 136.47 58.4482" fill="#DA5F8E"/>
<path d="M1.9433 69.131C1.9433 68.2169 2.16458 67.3576 2.61006 66.556C3.05553 65.7544 3.67861 65.1114 4.47638 64.6241C5.27707 64.1367 6.15928 63.8945 7.12593 63.8945C7.6471 63.8945 8.14498 63.9637 8.61375 64.105C9.08542 64.2463 9.47266 64.4136 9.77547 64.6125C10.0783 64.8115 10.3461 65.0104 10.5762 65.2094C10.8062 65.4084 10.975 65.5814 11.0769 65.7256L11.2313 65.9274L9.92105 67.1615L9.72888 67.0231C9.78129 66.9568 9.80458 66.8674 9.80458 66.755C9.80458 66.3657 9.56001 65.962 9.06795 65.5468C8.5759 65.1316 7.92661 64.9239 7.12301 64.9239C6.1389 64.9239 5.31201 65.3219 4.64526 66.1177C3.9785 66.9136 3.64367 67.9199 3.64367 69.131C3.64367 70.2325 3.97559 71.1812 4.63943 71.977C5.30327 72.7728 6.15637 73.1708 7.19872 73.1708C7.57431 73.1708 7.92661 73.1448 8.2498 73.0872C8.5759 73.0324 8.83794 72.9747 9.03884 72.917C9.23974 72.8565 9.4552 72.7584 9.68812 72.6171C9.91814 72.4758 10.0783 72.372 10.1685 72.3C10.2588 72.2279 10.4073 72.0981 10.6169 71.9136C10.8266 71.7261 10.9605 71.6079 11.0216 71.5589L11.5341 72.1068C11.4991 72.1644 11.4438 72.2452 11.3681 72.349C11.2924 72.4499 11.1206 72.6316 10.8557 72.8882C10.5907 73.1477 10.3054 73.3755 10.0026 73.5745C9.69976 73.7734 9.29214 73.9551 8.78262 74.1137C8.27309 74.2752 7.74609 74.3559 7.19872 74.3559C6.24954 74.3559 5.36442 74.0964 4.54044 73.5745C3.71646 73.0525 3.07882 72.3951 2.6217 71.5993C2.16459 70.8034 1.93457 69.9816 1.93457 69.1339" fill="#DA5F8E"/>
<path d="M18.503 73.2496C18.503 73.4601 18.57 73.6533 18.701 73.8205C18.832 73.9907 18.9776 74.0743 19.1319 74.0743V74.3165H16.2815V74.0743C16.4358 74.0743 16.5756 73.9907 16.7037 73.8205C16.8318 73.6504 16.8958 73.4687 16.8958 73.2755V69.4866C16.8958 69.155 16.7998 68.8263 16.6076 68.4947C16.4154 68.1631 16.1476 67.9987 15.804 67.9987C15.5128 67.9987 15.2362 68.0997 14.9771 68.2986C14.7151 68.4976 14.4996 68.7283 14.3278 68.9907V73.2496C14.3278 73.4601 14.389 73.6533 14.5142 73.8205C14.6394 73.9878 14.7762 74.0743 14.9305 74.0743V74.3165H12.0801V74.0743C12.2344 74.0743 12.3712 73.9878 12.4964 73.8148C12.6216 73.6418 12.6828 73.4514 12.6828 73.2496V65.6602C12.6828 65.4497 12.6216 65.2594 12.4964 65.095C12.3712 64.9307 12.2344 64.8471 12.0801 64.8471V64.6048L14.3249 63.9561V67.5143C14.8053 67.0241 15.2974 66.779 15.8011 66.779C16.4853 66.779 17.1055 67.0126 17.6616 67.4768C18.2177 67.9439 18.4972 68.6129 18.4972 69.4866V73.2496H18.503Z" fill="#DA5F8E"/>
<path d="M25.9841 66.7558V66.998C25.8298 66.998 25.69 67.0845 25.5677 67.2575C25.4425 67.4305 25.3814 67.6208 25.3814 67.8227V73.2494C25.3814 73.4628 25.4425 73.6531 25.5677 73.829C25.6929 74.002 25.8298 74.0885 25.9841 74.0885V74.3163H22.3272C22.0098 74.3163 21.7012 74.2731 21.4042 74.1837C21.1043 74.0943 20.819 73.9588 20.5511 73.7771C20.2803 73.5954 20.0648 73.3359 19.9018 72.9957C19.7387 72.6583 19.6572 72.2633 19.6572 71.8134V66.7529H21.8788V66.9951C21.7245 66.9951 21.5847 67.0787 21.4624 67.2488C21.3401 67.419 21.2761 67.6006 21.2761 67.7938V71.8105C21.2761 72.1249 21.3663 72.4161 21.5468 72.6871C21.7274 72.9582 21.9865 73.0937 22.3301 73.0937C22.9706 73.0937 23.4394 72.9611 23.7276 72.6987V66.75H25.987L25.9841 66.7558Z" fill="#DA5F8E"/>
<path d="M28.7565 63.96V73.2766C28.7565 73.4871 28.8177 73.6774 28.9429 73.8417C29.0652 74.0061 29.2049 74.0897 29.3592 74.0897V74.3175H26.5088V74.0897C26.6631 74.0897 26.8029 74.0061 26.931 73.836C27.0591 73.6658 27.1231 73.4813 27.1231 73.2766V65.6756C27.1231 65.4652 27.0591 65.2748 26.931 65.1105C26.8029 64.9461 26.6602 64.8625 26.5088 64.8625V64.6203L28.7536 63.96H28.7565Z" fill="#DA5F8E"/>
<path d="M33.1963 74.32C32.2296 74.32 31.4377 74.0951 30.8204 73.6395C30.2032 73.1868 29.8975 72.5784 29.8975 71.8142C29.8975 71.1107 30.2381 70.5369 30.9252 70.0928C31.6095 69.6487 32.3228 69.4267 33.0682 69.4267C33.6243 69.4267 34.1513 69.5536 34.6463 69.8073V69.3373C34.6463 69.1758 34.6288 69.0144 34.5938 68.8471C34.5589 68.6828 34.4978 68.5069 34.4075 68.3194C34.3172 68.132 34.1775 67.9821 33.9853 67.8696C33.7932 67.7543 33.5631 67.6995 33.2982 67.6995C32.7683 67.6995 32.3985 67.7802 32.1947 67.9417C31.9909 68.1032 31.8861 68.3281 31.8861 68.6164L31.6036 68.8183L30.6283 67.3938C30.6952 67.3333 30.7971 67.2612 30.9311 67.1776C31.0621 67.0939 31.362 66.9786 31.8278 66.8344C32.2937 66.6903 32.7916 66.6182 33.3244 66.6182C34.2823 66.6182 35.0218 66.9007 35.5459 67.463C36.0671 68.0282 36.3292 68.8327 36.3292 69.8852V73.2272C36.3292 73.4463 36.3932 73.6453 36.5213 73.824C36.6494 74.0028 36.7921 74.0922 36.9435 74.0922V74.32H33.1963ZM31.6066 71.8661C31.6066 72.1545 31.7376 72.4486 31.9967 72.7485C32.2588 73.0484 32.678 73.2012 33.2603 73.2012C33.7553 73.2012 34.2183 73.1176 34.6463 72.9475V70.9521C34.2183 70.6897 33.7728 70.557 33.3127 70.557C32.7566 70.557 32.3345 70.7041 32.0433 71.0011C31.7521 71.2981 31.6066 71.5864 31.6066 71.8661Z" fill="#DA5F8E"/>
<path d="M39.7175 63.96V73.2766C39.7175 73.4871 39.7786 73.6774 39.9038 73.8417C40.029 74.0061 40.1659 74.0897 40.3202 74.0897V74.3175H37.4697V74.0897C37.624 74.0897 37.7638 74.0061 37.8919 73.836C38.02 73.6658 38.0841 73.4813 38.0841 73.2766V65.6756C38.0841 65.4652 38.02 65.2748 37.8919 65.1105C37.7638 64.9461 37.6211 64.8625 37.4697 64.8625V64.6203L39.7146 63.96H39.7175Z" fill="#DA5F8E"/>
<path d="M41.9774 67.8167C42.7228 67.0584 43.6195 66.6777 44.6735 66.6777C45.7275 66.6777 46.6243 67.0584 47.3697 67.8167C48.115 68.5751 48.4848 69.4834 48.4848 70.5445C48.4848 71.6056 48.1092 72.5197 47.3609 73.2896C46.6126 74.0624 45.7159 74.4459 44.6706 74.4459C43.6254 74.4459 42.7315 74.0595 41.9803 73.2896C41.232 72.5197 40.8564 71.6028 40.8564 70.5445C40.8564 69.4863 41.2291 68.5751 41.9716 67.8167M43.1828 72.3871C43.5933 72.9032 44.0883 73.1627 44.6706 73.1627C45.2529 73.1627 45.7479 72.9032 46.1584 72.3871C46.569 71.8709 46.7757 71.2567 46.7757 70.5445C46.7757 69.8323 46.569 69.221 46.1584 68.7077C45.7479 68.1945 45.25 67.9378 44.6706 67.9378C44.0912 67.9378 43.5933 68.1945 43.1828 68.7077C42.7723 69.221 42.5655 69.8323 42.5655 70.5445C42.5655 71.2567 42.7694 71.8709 43.1828 72.3871Z" fill="#DA5F8E"/>
<path d="M55.482 73.2495C55.482 73.46 55.549 73.6532 55.6888 73.8291C55.8256 74.0021 55.9712 74.0886 56.1255 74.0886V74.3164H53.2372V74.0886C53.3915 74.0886 53.5313 74.0021 53.6594 73.8291C53.7875 73.6561 53.8516 73.4715 53.8516 73.2754V69.1693C53.8516 68.8464 53.7671 68.5523 53.5953 68.287C53.4235 68.0188 53.1644 67.8862 52.8121 67.8862C52.5297 67.8862 52.2618 67.9554 52.0085 68.0909C51.7552 68.2264 51.5485 68.4052 51.3854 68.6243V73.2524C51.3854 73.4629 51.4495 73.6561 51.5776 73.8319C51.7057 74.005 51.8484 74.0915 51.9998 74.0915V74.3193H49.1377V74.0915C49.292 74.0915 49.4318 74.0021 49.554 73.8233C49.6792 73.6445 49.7404 73.4542 49.7404 73.2524V68.3591C49.7404 68.1486 49.6792 67.9554 49.554 67.7881C49.4289 67.618 49.292 67.5344 49.1377 67.5344V67.3066L51.3825 66.6318V67.1797C51.7406 66.8423 52.2152 66.6722 52.8063 66.6722C53.1237 66.6722 53.4294 66.7155 53.7293 66.8048C54.0292 66.8942 54.3145 67.0298 54.5824 67.2114C54.8531 67.3931 55.0686 67.6526 55.2316 67.9929C55.3947 68.3331 55.4762 68.7253 55.4762 69.1751V73.2553L55.482 73.2495Z" fill="#DA5F8E"/>
<path d="M62.1662 67.417C62.8504 67.9504 63.194 68.5934 63.194 69.3489C63.194 69.7814 63.092 70.1765 62.8911 70.5369C62.6902 70.8974 62.434 71.1857 62.1225 71.402C61.811 71.6182 61.4732 71.7855 61.1151 71.9037C60.757 72.0219 60.4017 72.0825 60.0494 72.0825C58.8528 72.0825 58.253 72.2468 58.253 72.5785C58.253 72.9591 59.0944 73.1494 60.7802 73.1494C60.9928 73.1494 61.2257 73.1638 61.479 73.1926C61.7323 73.2215 62.0322 73.2878 62.3787 73.3887C62.7252 73.4896 63.0309 73.6223 63.2959 73.7838C63.5608 73.9452 63.7908 74.1788 63.983 74.4816C64.1752 74.7872 64.2712 75.1332 64.2712 75.5225C64.2712 76.0214 64.146 76.4712 63.8927 76.8691C63.6394 77.267 63.3133 77.5871 62.9115 77.8293C62.5097 78.0715 62.0701 78.2532 61.5955 78.3772C61.1209 78.5012 60.6434 78.5617 60.1659 78.5617C59.1731 78.5617 58.2938 78.3339 57.528 77.8755C56.7623 77.417 56.3779 76.823 56.3779 76.0963C56.3779 75.6205 56.5352 75.2774 56.8467 75.0669C57.1582 74.8535 57.563 74.7497 58.0579 74.7497C57.9298 74.9372 57.8658 75.2976 57.8658 75.831C57.8658 76.3126 58.0899 76.7768 58.5383 77.2238C58.9867 77.6707 59.6185 77.8899 60.4309 77.8899C61.2432 77.8899 61.843 77.6707 62.2855 77.2353C62.7252 76.7999 62.9465 76.3789 62.9465 75.9695C62.9465 75.5975 62.7106 75.2399 62.2419 74.8968C61.7702 74.5537 61.0831 74.3835 60.1746 74.3835C57.8716 74.3835 56.7215 73.9481 56.7215 73.0744C56.7215 72.8466 56.7885 72.6419 56.9195 72.4631C57.0505 72.2843 57.2136 72.1575 57.4057 72.0767C57.5979 71.996 57.7901 71.9297 57.9822 71.8806C58.1744 71.8316 58.3345 71.7999 58.4626 71.7913L58.6664 71.7797C58.6169 71.7711 58.55 71.7509 58.4743 71.722C58.3986 71.6932 58.2559 71.6211 58.0492 71.5058C57.8454 71.3904 57.6619 71.2549 57.5047 71.0992C57.3475 70.9435 57.2019 70.7215 57.0738 70.4331C56.9457 70.1448 56.8816 69.8276 56.8816 69.4787C56.8816 68.8933 57.0534 68.3858 57.3999 67.9533C57.7464 67.5208 58.154 67.2122 58.6199 67.0248C59.0857 66.8403 59.5603 66.7451 60.0378 66.7451C60.5415 66.7451 61.0336 66.8518 61.514 67.0623C62.0177 66.8662 62.5272 66.7711 63.0426 66.7711C63.2813 66.7711 63.5055 66.7913 63.7093 66.8287C63.916 66.8662 64.0645 66.9066 64.1577 66.9498L64.2858 66.9989L63.6685 68.1552L63.4502 68.0167C63.4502 67.8553 63.3716 67.7169 63.2143 67.5986C63.0571 67.4804 62.8649 67.4199 62.6437 67.4199H62.1574L62.1662 67.417ZM58.5616 69.4873C58.5616 70.0294 58.6926 70.4591 58.9518 70.7763C59.2138 71.0934 59.5603 71.252 59.997 71.252C60.4862 71.252 60.8618 71.0963 61.1267 70.782C61.3917 70.4677 61.5256 70.0352 61.5256 69.4844C61.5256 68.2301 61.0161 67.6044 59.997 67.6044C59.5516 67.6044 59.2022 67.7688 58.946 68.0946C58.6897 68.4204 58.5616 68.8847 58.5616 69.4873Z" fill="#DA5F8E"/>
<path d="M68.1987 69.7673C68.4811 69.8856 68.7897 70.1855 69.1304 70.6641C69.4681 71.1428 69.7622 71.6272 70.0097 72.1203C70.2572 72.6134 70.5338 73.0574 70.8366 73.4553C71.1394 73.8533 71.416 74.0522 71.6635 74.0522V74.3175H69.3546C69.3196 74.2425 69.273 74.1359 69.2148 74.0003C69.1537 73.8648 69.0343 73.6139 68.8567 73.2506C68.6762 72.8873 68.4986 72.5528 68.3239 72.2472C68.1492 71.9415 67.9424 71.6359 67.7066 71.3244C67.4708 71.0159 67.2553 70.7939 67.0573 70.6583V73.2506C67.0573 73.4611 67.1214 73.6543 67.2495 73.8302C67.3776 74.0032 67.5203 74.0897 67.6717 74.0897V74.3175H64.8212V74.0897C64.9755 74.0897 65.1153 74.0003 65.2376 73.8216C65.3628 73.6428 65.4239 73.4525 65.4239 73.2506V65.6612C65.4239 65.4507 65.3628 65.2604 65.2376 65.0961C65.1124 64.9317 64.9755 64.8481 64.8212 64.8481V64.6203L67.0544 63.96V69.0061L68.3879 66.757H70.7114V66.9848C70.5658 66.9848 70.4173 67.0222 70.263 67.0914C70.1087 67.1635 69.9689 67.2472 69.8408 67.3452C69.7127 67.4432 69.5788 67.5759 69.4361 67.746C69.2963 67.9161 69.177 68.0661 69.0838 68.1958C68.9906 68.3285 68.8858 68.4899 68.7693 68.686C68.6529 68.8821 68.5714 69.0292 68.5189 69.1301C68.4665 69.231 68.4025 69.3608 68.321 69.5165C68.2394 69.6722 68.1987 69.7558 68.1987 69.7645" fill="#DA5F8E"/>
<path d="M72.1278 67.8167C72.8732 67.0584 73.7699 66.6777 74.8239 66.6777C75.8779 66.6777 76.7747 67.0584 77.5201 67.8167C78.2654 68.5751 78.6381 69.4834 78.6381 70.5445C78.6381 71.6056 78.2625 72.5197 77.5142 73.2896C76.766 74.0624 75.8692 74.4459 74.8239 74.4459C73.7787 74.4459 72.8848 74.0595 72.1336 73.2896C71.3854 72.5197 71.0098 71.6028 71.0098 70.5445C71.0098 69.4863 71.3825 68.5751 72.1249 67.8167M73.3361 72.3871C73.7467 72.9032 74.2416 73.1627 74.8239 73.1627C75.4063 73.1627 75.9012 72.9032 76.3118 72.3871C76.7223 71.8709 76.929 71.2567 76.929 70.5445C76.929 69.8323 76.7252 69.221 76.3118 68.7077C75.9012 68.1945 75.4033 67.9378 74.8239 67.9378C74.2445 67.9378 73.7467 68.1945 73.3361 68.7077C72.9256 69.221 72.7189 69.8323 72.7189 70.5445C72.7189 71.2567 72.9227 71.8709 73.3361 72.3871Z" fill="#DA5F8E"/>
<path d="M82.886 66.6509C83.1685 66.6509 83.4334 66.6769 83.6809 66.7259C83.9284 66.7778 84.106 66.8268 84.2079 66.8787L84.3738 66.9537L83.643 68.6838L83.3868 68.4935C83.3868 68.2397 83.2937 68.0263 83.1044 67.8504C82.9151 67.6774 82.688 67.5909 82.4231 67.5909C82.0475 67.5909 81.7097 67.7293 81.4099 68.009V73.2455C81.4099 73.456 81.4739 73.6492 81.602 73.8251C81.7301 73.9981 81.8728 74.0846 82.0242 74.0846V74.3124H79.1621V74.0846C79.3164 74.0846 79.4562 73.9952 79.5785 73.8164C79.7037 73.6376 79.7648 73.4473 79.7648 73.2455V68.3378C79.7648 68.1273 79.7037 67.9369 79.5785 67.7726C79.4533 67.6082 79.3164 67.5246 79.1621 67.5246V67.2968L81.4069 66.6221V67.0402C81.8611 66.7778 82.3532 66.6451 82.8831 66.6451" fill="#DA5F8E"/>
<path d="M91.2418 73.2495C91.2418 73.46 91.3088 73.6532 91.4456 73.8291C91.5824 74.0021 91.728 74.0886 91.8823 74.0886V74.3164H88.994V74.0886C89.1483 74.0886 89.2881 74.0021 89.4162 73.8291C89.5443 73.6561 89.6084 73.4715 89.6084 73.2754V69.1693C89.6084 68.8464 89.524 68.5523 89.3522 68.287C89.1804 68.0217 88.9213 67.8862 88.5689 67.8862C88.2865 67.8862 88.0187 67.9554 87.7653 68.0909C87.512 68.2264 87.3053 68.4052 87.1423 68.6243V73.2524C87.1423 73.4629 87.2063 73.6561 87.3344 73.8319C87.4625 74.005 87.6023 74.0915 87.7566 74.0915V74.3193H84.8945V74.0915C85.0488 74.0915 85.1886 74.0021 85.3109 73.8233C85.4361 73.6445 85.4972 73.4542 85.4972 73.2524V68.3591C85.4972 68.1486 85.4361 67.9554 85.3109 67.7881C85.1857 67.618 85.0488 67.5344 84.8945 67.5344V67.3066L87.1394 66.6318V67.1797C87.4975 66.8423 87.9721 66.6722 88.5631 66.6722C88.8805 66.6722 89.1862 66.7155 89.4861 66.8048C89.786 66.8942 90.0713 67.0298 90.3392 67.2114C90.607 67.3931 90.8254 67.6526 90.9856 67.9929C91.1457 68.3331 91.2301 68.7253 91.2301 69.1751V73.2553L91.2418 73.2495Z" fill="#DA5F8E"/>
<path d="M104.074 64.2022C103.928 64.2022 103.788 64.2916 103.657 64.4761C103.523 64.6578 103.459 64.8394 103.459 65.0153V73.2535C103.459 73.464 103.523 73.6572 103.652 73.8244C103.78 73.9946 103.922 74.0782 104.074 74.0782V74.3204H101.829V73.2016C100.955 74.0061 99.9538 74.4098 98.827 74.4098C98.4078 74.4098 98.0234 74.3406 97.6769 74.2051C97.3305 74.0695 97.0451 73.8936 96.818 73.6774C96.5909 73.4611 96.4017 73.2131 96.2474 72.9334C96.0931 72.6537 95.9853 72.3798 95.9213 72.1145C95.8572 71.8492 95.8252 71.5926 95.8252 71.3446V65.0153C95.8252 64.8538 95.7582 64.678 95.6272 64.4876C95.4933 64.2973 95.3564 64.2022 95.2108 64.2022V63.96H98.0729V64.2022C97.9273 64.2022 97.7876 64.2916 97.6566 64.4761C97.5226 64.6578 97.4586 64.8394 97.4586 65.0153V71.3216C97.4586 71.483 97.4702 71.633 97.4906 71.7743C97.511 71.9127 97.5605 72.0713 97.6391 72.25C97.7148 72.4288 97.8167 72.5788 97.939 72.7028C98.0642 72.8239 98.2418 72.9306 98.4718 73.0142C98.7018 73.0978 98.9697 73.141 99.2667 73.141C100.079 73.141 100.935 72.6364 101.835 71.6272V65.0182C101.835 64.8567 101.768 64.6808 101.637 64.4905C101.503 64.3002 101.366 64.2051 101.22 64.2051V63.9628H104.082V64.2051L104.074 64.2022Z" fill="#DA5F8E"/>
<path d="M110.942 73.2495C110.942 73.46 111.009 73.6532 111.149 73.8291C111.286 74.0021 111.431 74.0886 111.585 74.0886V74.3164H108.697V74.0886C108.852 74.0886 108.991 74.0021 109.119 73.8291C109.247 73.6561 109.312 73.4715 109.312 73.2754V69.1693C109.312 68.8464 109.227 68.5523 109.055 68.287C108.884 68.0188 108.624 67.8862 108.272 67.8862C107.99 67.8862 107.722 67.9554 107.471 68.0909C107.218 68.2264 107.011 68.4052 106.848 68.6243V73.2524C106.848 73.4629 106.912 73.6561 107.04 73.8319C107.169 74.005 107.308 74.0915 107.463 74.0915V74.3193H104.601V74.0915C104.755 74.0915 104.895 74.0021 105.017 73.8233C105.139 73.6445 105.203 73.4542 105.203 73.2524V68.3591C105.203 68.1486 105.142 67.9554 105.017 67.7881C104.892 67.618 104.755 67.5344 104.601 67.5344V67.3066L106.845 66.6318V67.1797C107.204 66.8423 107.681 66.6722 108.269 66.6722C108.587 66.6722 108.895 66.7155 109.192 66.8048C109.492 66.8942 109.774 67.0298 110.045 67.2114C110.316 67.3931 110.531 67.6526 110.695 67.9929C110.858 68.3331 110.939 68.7253 110.939 69.1751V73.2553L110.942 73.2495Z" fill="#DA5F8E"/>
<path d="M114.353 73.2492C114.353 73.4626 114.417 73.6529 114.545 73.8202C114.673 73.9903 114.816 74.0739 114.968 74.0739V74.3161H112.105V74.0739C112.26 74.0739 112.4 73.9874 112.522 73.8115C112.647 73.6385 112.708 73.4482 112.708 73.2463V68.379C112.708 68.1656 112.647 67.9782 112.522 67.8138C112.397 67.6495 112.26 67.5658 112.105 67.5658V67.338L114.35 66.6633V73.2463L114.353 73.2492ZM112.961 65.6858C112.796 65.5243 112.711 65.334 112.711 65.1149C112.711 64.8957 112.796 64.7025 112.961 64.541C113.127 64.3796 113.323 64.2988 113.547 64.2988C113.771 64.2988 113.96 64.3796 114.117 64.541C114.275 64.7025 114.353 64.8928 114.353 65.1149C114.353 65.3369 114.275 65.5243 114.117 65.6858C113.96 65.8473 113.768 65.928 113.547 65.928C113.325 65.928 113.13 65.8473 112.961 65.6858Z" fill="#DA5F8E"/>
<path d="M116.037 67.517C115.993 67.3815 115.892 67.2632 115.729 67.1623C115.565 67.0614 115.411 67.0095 115.266 67.0095V66.7557H117.947V67.0095C117.837 67.0095 117.746 67.0441 117.676 67.1104C117.606 67.1767 117.574 67.2575 117.574 67.3526C117.574 67.5487 117.973 68.976 118.768 71.6375C119.563 68.976 119.962 67.5487 119.962 67.3526C119.962 67.1248 119.843 67.0095 119.601 67.0095V66.7557H122.283V67.0095C122.137 67.0095 121.98 67.0614 121.814 67.1623C121.648 67.2632 121.543 67.3815 121.499 67.517C121.491 67.5429 121.319 68.1369 120.987 69.3019C120.652 70.4668 120.332 71.5885 120.023 72.6698C119.714 73.7511 119.557 74.299 119.549 74.3163H117.982C117.973 74.299 117.816 73.7511 117.508 72.6698C117.199 71.5885 116.879 70.4668 116.544 69.3019C116.209 68.1369 116.04 67.5401 116.031 67.517" fill="#DA5F8E"/>
<path d="M126.009 73.3122C126.445 73.3122 126.871 73.2343 127.287 73.0786C127.703 72.9229 128.018 72.7643 128.236 72.6086C128.454 72.4529 128.699 72.2539 128.973 72.0175L129.5 72.4875C129.473 72.5394 129.433 72.6086 129.372 72.698C129.31 72.7874 129.177 72.9431 128.967 73.168C128.757 73.3929 128.527 73.589 128.28 73.7591C128.032 73.9292 127.7 74.0821 127.284 74.2234C126.871 74.3618 126.434 74.4339 125.983 74.4339C124.853 74.4339 123.918 74.0561 123.179 73.2978C122.439 72.5394 122.069 71.6224 122.069 70.5469C122.069 69.4713 122.442 68.5832 123.187 67.8076C123.933 67.0319 124.847 66.6455 125.933 66.6455C126.352 66.6455 126.74 66.7003 127.095 66.8099C127.45 66.9194 127.75 67.0636 127.994 67.2424C128.239 67.4212 128.457 67.6172 128.65 67.8335C128.842 68.0498 128.993 68.266 129.104 68.4823C129.214 68.6986 129.308 68.8946 129.386 69.0734C129.462 69.2522 129.514 69.3964 129.54 69.5059L129.578 69.6703C127.686 70.0163 125.805 70.717 123.93 71.7666C124.119 72.2251 124.393 72.5971 124.751 72.8854C125.109 73.1738 125.528 73.3179 126.009 73.3179M125.933 67.9373C125.284 67.9373 124.745 68.1853 124.323 68.6813C123.901 69.1772 123.688 69.7972 123.688 70.544V70.619C124.236 70.296 124.894 69.9904 125.659 69.6963C126.425 69.405 127.112 69.1974 127.718 69.0792C127.625 68.7735 127.424 68.5082 127.115 68.2776C126.806 68.0498 126.413 67.9344 125.933 67.9344" fill="#DA5F8E"/>
<path d="M133.969 66.6509C134.251 66.6509 134.516 66.6769 134.764 66.7259C135.011 66.7778 135.186 66.8268 135.291 66.8787L135.457 66.9537L134.726 68.6838L134.47 68.4935C134.47 68.2397 134.377 68.0263 134.187 67.8504C133.998 67.6774 133.771 67.5909 133.506 67.5909C133.131 67.5909 132.79 67.7293 132.493 68.009V73.2455C132.493 73.456 132.557 73.6492 132.685 73.8251C132.813 73.9981 132.956 74.0846 133.107 74.0846V74.3124H130.245V74.0846C130.399 74.0846 130.539 73.9952 130.661 73.8164C130.787 73.6376 130.848 73.4473 130.848 73.2455V68.3378C130.848 68.1273 130.787 67.9369 130.661 67.7726C130.536 67.6082 130.399 67.5246 130.245 67.5246V67.2968L132.49 66.6221V67.0402C132.944 66.7778 133.436 66.6451 133.966 66.6451" fill="#DA5F8E"/>
<path d="M138.526 66.6932C138.928 66.6932 139.321 66.7595 139.708 66.8893C140.092 67.0219 140.381 67.1488 140.567 67.2757L140.838 67.4775L140.107 68.8501L139.772 68.6973C139.763 68.654 139.758 68.5963 139.758 68.5185C139.758 68.3484 139.656 68.1955 139.449 68.0542C139.245 67.9158 138.957 67.8437 138.59 67.8437C137.827 67.8437 137.449 68.1667 137.449 68.8097C137.449 68.9712 137.519 69.1067 137.655 69.2163C137.792 69.3259 137.967 69.4153 138.182 69.4845C138.395 69.5537 138.634 69.62 138.896 69.6892C139.158 69.7555 139.42 69.8478 139.685 69.9631C139.95 70.0785 140.188 70.2169 140.404 70.3812C140.616 70.5456 140.794 70.7763 140.931 71.0733C141.068 71.3703 141.138 71.7163 141.138 72.1142C141.138 72.4372 141.062 72.7342 140.908 73.0052C140.753 73.2763 140.564 73.4954 140.343 73.6598C140.122 73.8241 139.877 73.9654 139.612 74.0779C139.347 74.1932 139.108 74.274 138.893 74.3201C138.68 74.3662 138.5 74.3893 138.354 74.3893C137.798 74.3893 137.294 74.3259 136.84 74.199C136.386 74.0721 136.074 73.9395 135.903 73.8039L135.632 73.6136L136.363 72.1027L136.593 72.2036C136.636 72.466 136.657 72.6361 136.657 72.7111C136.657 72.7861 136.715 72.8697 136.837 72.9591C136.957 73.0485 137.14 73.1292 137.39 73.2013C137.638 73.2734 137.909 73.308 138.2 73.308C138.654 73.308 138.995 73.2071 139.219 73.0023C139.446 72.8005 139.56 72.5698 139.56 72.3161C139.56 72.0277 139.437 71.7941 139.193 71.6096C138.948 71.4279 138.654 71.2809 138.308 71.1655C137.961 71.0502 137.615 70.9204 137.268 70.7705C136.922 70.6234 136.628 70.3812 136.383 70.0467C136.138 69.7123 136.016 69.2855 136.016 68.7693C136.016 68.1696 136.284 67.6707 136.826 67.2757C137.364 66.8806 137.935 66.6846 138.532 66.6846" fill="#DA5F8E"/>
<path d="M143.904 73.2492C143.904 73.4626 143.968 73.6529 144.096 73.8202C144.224 73.9903 144.367 74.0739 144.518 74.0739V74.3161H141.656V74.0739C141.811 74.0739 141.95 73.9874 142.073 73.8115C142.195 73.6385 142.259 73.4482 142.259 73.2463V68.379C142.259 68.1656 142.195 67.9782 142.073 67.8138C141.947 67.6495 141.811 67.5658 141.656 67.5658V67.338L143.904 66.6633V73.2463V73.2492ZM142.512 65.6858C142.346 65.5243 142.262 65.334 142.262 65.1149C142.262 64.8957 142.346 64.7025 142.512 64.541C142.678 64.3796 142.873 64.2988 143.097 64.2988C143.322 64.2988 143.511 64.3796 143.668 64.541C143.825 64.7025 143.904 64.8928 143.904 65.1149C143.904 65.3369 143.825 65.5243 143.668 65.6858C143.508 65.8473 143.319 65.928 143.097 65.928C142.876 65.928 142.681 65.8473 142.512 65.6858Z" fill="#DA5F8E"/>
<path d="M144.66 67.9492L145.123 66.7554C145.397 66.7554 145.644 66.6805 145.86 66.5334C146.078 66.3864 146.241 66.2047 146.355 65.9942C146.465 65.7837 146.558 65.5703 146.631 65.3598C146.704 65.1493 146.748 64.9648 146.765 64.812L146.791 64.5957H147.65V66.7554H149.307L148.934 67.9492H147.65V72.1303C147.65 72.9694 148.177 73.3875 149.228 73.3875V74.316H148.099C147.525 74.316 147.033 74.1199 146.623 73.7249C146.212 73.3298 146.005 72.8454 146.005 72.2687V67.9463H144.657L144.66 67.9492Z" fill="#DA5F8E"/>
<path d="M153.326 71.5857C154.121 68.9242 154.519 67.5084 154.519 67.3412C154.519 67.2489 154.487 67.171 154.423 67.1047C154.359 67.0413 154.272 67.0096 154.161 67.0096V66.7558H156.843V67.0096C156.697 67.0096 156.543 67.0615 156.38 67.1624C156.217 67.2633 156.115 67.3815 156.071 67.5171C156.071 67.5344 155.867 68.2581 155.454 69.6912C155.044 71.1243 154.627 72.5603 154.208 73.9992C153.789 75.4409 153.541 76.2714 153.463 76.4905C153.361 76.7789 153.203 77.0384 152.994 77.272C152.784 77.5055 152.569 77.6843 152.344 77.8112C152.123 77.9381 151.905 78.0476 151.695 78.1341C151.486 78.2235 151.311 78.2812 151.174 78.3043L150.982 78.3562V77.8227C151.026 77.7968 151.081 77.7593 151.148 77.7074C151.215 77.6555 151.325 77.5372 151.474 77.3527C151.622 77.1653 151.736 76.9663 151.815 76.7558C151.969 76.306 152.213 75.4928 152.545 74.3164C152.537 74.3077 151.882 72.0413 150.583 67.5142C150.539 67.3787 150.44 67.2604 150.28 67.1595C150.123 67.0586 149.969 67.0067 149.823 67.0067V66.7529H152.493V67.0067C152.382 67.0067 152.295 67.0384 152.231 67.1018C152.167 67.1653 152.135 67.2431 152.135 67.3383C152.135 67.4075 152.234 67.7939 152.429 68.5003C152.627 69.2068 152.822 69.9017 153.02 70.5793L153.314 71.5828L153.326 71.5857Z" fill="#DA5F8E"/>
</svg>
